<?xml version="1.0" encoding="utf-8"?>
<!-- Generator: Adobe Illustrator 18.0.0, SVG Export Plug-In . SVG Version: 6.00 Build 0)  -->
<!DOCTYPE svg PUBLIC "-//W3C//DTD SVG 1.1//EN" "http://www.w3.org/Graphics/SVG/1.1/DTD/svg11.dtd">
<svg version="1.1" id="Layer_1" xmlns="http://www.w3.org/2000/svg" xmlns:xlink="http://www.w3.org/1999/xlink" x="0px" y="0px"
	 viewBox="0 0 2000 872" enable-background="new 0 0 2000 872" xml:space="preserve">
<g>
	<polygon points="121.7,616.1 21.3,616.1 21.3,589.1 249,589.1 249,616.1 148.6,616.1 148.6,835.5 121.7,835.5 	"/>
	<path d="M312.3,795.6c4.2,4,9.1,7.2,14.6,9.5c5.5,2.3,11.4,3.5,17.7,3.5h94v26.9h-94c-10.3,0-20.1-2-29.1-5.9
		c-9.1-3.9-17-9.3-23.7-16.1c-6.8-6.9-12.1-14.8-16-23.9c-3.9-9.1-5.9-18.7-5.9-28.8v-48.4c0-10.3,1.9-20.1,5.9-29.1
		c3.9-9.1,9.2-17,16-23.9c6.8-6.9,14.7-12.3,23.7-16.3c9.1-4,18.8-6,29.1-6h49.1c11.6,0,21.1,2.6,28.5,7.8
		c7.4,5.2,12.2,11.6,14.4,19.3c2.2,7.7,1.8,15.9-1.3,24.7c-3.1,8.8-9.1,16.7-18.2,23.9L312.3,795.6z M296.8,758.8
		c0,2.3,0.2,4.5,0.6,6.7c0.4,2.1,1.1,3.9,1.9,5.4l101.3-79.2c3.8-3,6.5-6.1,8.2-9.3c1.7-3.3,2.3-6.3,1.7-9c-0.5-2.7-2.2-5-4.9-6.8
		c-2.7-1.8-6.8-2.7-12-2.7h-49.1c-6.8,0-13,1.3-18.8,3.8c-5.8,2.5-10.8,6-15,10.3c-4.2,4.3-7.6,9.5-10.1,15.4
		c-2.5,5.9-3.8,12.2-3.8,19V758.8z"/>
	<path d="M489,682.2c4-9.1,9.4-17,16.3-23.7c6.9-6.8,14.9-12.1,24.2-16c9.3-3.9,19.2-5.9,29.8-5.9h88v26.9h-88
		c-7,0-13.5,1.3-19.5,3.8c-6,2.5-11.2,6-15.7,10.3c-4.4,4.3-7.9,9.4-10.4,15.1c-2.5,5.7-3.8,11.8-3.8,18.4v72.7
		c0,6.8,2.5,12.6,7.6,17.5c5.1,4.9,11.3,7.3,18.7,7.3h111.1v26.9H536.2c-7.4,0-14.4-1.4-20.9-4.1c-6.5-2.7-12.2-6.4-16.9-11.1
		c-4.7-4.6-8.5-10.1-11.2-16.5c-2.7-6.3-4.1-13-4.1-19.9v-72.5C483,701,485,691.3,489,682.2"/>
	<path d="M818.7,642.2c8.8,3.5,16.5,8.2,23.1,14.2c6.5,6,11.7,13.1,15.5,21.4c3.8,8.2,5.7,17,5.7,26.3v76.4H836v-76.4
		c0-5.5-1.2-10.7-3.6-15.5c-2.4-4.9-5.7-9.1-9.8-12.8c-4.1-3.7-8.9-6.6-14.4-8.7c-5.5-2.1-11.4-3.2-17.7-3.2h-68.1v171.6h-26.9
		V589.1h26.9v47.8h67.9C800.4,636.9,809.8,638.7,818.7,642.2"/>
	<path d="M1023.8,723.4c9.9,5.1,17.7,11.3,23.3,18.8c5.6,7.5,9.2,15.4,10.8,23.6c1.6,8.2,1.3,16.5-0.8,24.9
		c-2.1,8.3-6,15.8-11.6,22.5c-5.6,6.6-12.8,12-21.5,16.1c-8.8,4.1-18.9,6.2-30.6,6.2l-157.2,0.2v-26.9l157.2-0.2
		c9.7,0,17.8-2.3,24.4-6.8c6.5-4.5,10.9-10,13-16.5c2.1-6.4,1.6-13.1-1.4-20.1c-3.1-7-9.2-12.9-18.5-17.7l-99.4-51.3
		c-9.5-4.9-17-10.9-22.5-18c-5.5-7.2-9.1-14.8-10.8-22.8c-1.7-8-1.6-15.9,0.3-23.7c1.9-7.8,5.5-14.9,10.9-21.2
		c5.4-6.3,12.4-11.4,21.1-15.4c8.7-3.9,18.8-5.9,30.4-5.9h105.1v26.9H940.8c-9.9,0-18,2.1-24.2,6.3c-6.2,4.2-10.2,9.3-11.9,15.2
		c-1.7,5.9-1,12.1,2.1,18.5c3.1,6.4,8.8,11.9,17.3,16.3L1023.8,723.4z"/>
	<path d="M1134.5,796.2c7,8.2,19.6,12.3,38,12.3h50.7v26.9h-50.7c-26.4,0-45.8-6.6-58.1-19.8c-12.3-13.2-18.5-34.2-18.5-63.2v-88.7
		H1075v-26.9h20.9v-47.8h26.9v47.8h151v26.9h-151v88.7C1122.8,773.2,1126.7,787.8,1134.5,796.2"/>
	<path d="M1424.6,636.9h26.9v140.6c0,8-1.5,15.6-4.4,22.6c-3,7.1-7.1,13.2-12.3,18.4c-5.3,5.2-11.4,9.3-18.3,12.3
		c-7,3.1-14.5,4.6-22.8,4.6h-41.1c-11.6,0-22.5-2.2-32.7-6.7c-10.2-4.4-19.1-10.4-26.7-18c-7.6-7.6-13.5-16.5-17.9-26.8
		c-4.3-10.2-6.5-21.2-6.5-32.8V636.9h26.9v114.3c0,7.8,1.5,15.2,4.4,22.2c3,7,7,13,12.2,18.2c5.2,5.2,11.2,9.3,18.2,12.3
		c7,3.1,14.4,4.6,22.2,4.6h41.2c8.9,0,16.2-3,22-9c5.8-6,8.7-13.3,8.7-22V636.9z"/>
	<path d="M1624.7,589.1h26.9v246.3h-102.4c-20,0-35.9-5.4-47.6-16.3c-11.7-10.9-17.5-25.7-17.5-44.5v-70.6c0-9.3,1.9-18,5.7-26.3
		c3.8-8.2,9-15.4,15.7-21.4c6.6-6,14.5-10.8,23.4-14.2c9-3.5,18.5-5.2,28.7-5.2h67.1V589.1z M1624.7,663.9h-67.1
		c-6.3,0-12.3,1.1-17.9,3.2c-5.6,2.1-10.6,5-14.9,8.7c-4.3,3.7-7.7,8-10.1,12.8c-2.4,4.9-3.6,10-3.6,15.5v70.6
		c0,10.8,3.4,19.1,10.1,25c6.8,5.9,16.1,8.9,28.2,8.9h75.4V663.9z"/>
	<path d="M1724.4,603.1c4,0,7.5,1.3,10.4,4c3,2.6,4.4,6.4,4.4,11.2c0,4.2-1.5,7.8-4.4,10.8c-3,3-6.4,4.4-10.4,4.4
		c-3.8,0-7.3-1.5-10.6-4.4c-3.3-3-4.9-6.5-4.9-10.8c0-4.9,1.6-8.6,4.9-11.2C1717.1,604.4,1720.6,603.1,1724.4,603.1 M1711.1,648.7
		h26.9v186.8h-26.9V648.7z"/>
	<path d="M1924.3,636.9c7.4,0,14.3,1.4,20.9,4.3c6.5,2.8,12.3,6.8,17.2,11.7c5,5,8.9,10.8,11.9,17.4c2.9,6.6,4.4,13.7,4.4,21.1v66.5
		c0,10.8-2.1,20.8-6.3,30.2c-4.2,9.4-9.9,17.6-16.9,24.5c-7.1,7-15.3,12.5-24.8,16.6c-9.5,4.1-19.5,6.2-30,6.2h-54.4
		c-7.4,0-14.3-1.4-20.9-4.3c-6.5-2.8-12.2-6.7-17.1-11.6c-4.9-4.9-8.7-10.6-11.5-17.1c-2.8-6.5-4.3-13.5-4.3-20.9v-66.8
		c0-10.8,2.1-20.9,6.2-30.4c4.1-9.5,9.6-17.8,16.6-24.9c7-7.1,15.1-12.6,24.5-16.6c9.4-4,19.3-6,29.9-6H1924.3z M1951.7,691.4
		c0-7.6-2.6-14.1-7.9-19.5c-5.3-5.4-11.7-8.1-19.3-8.1h-54.8c-7,0-13.5,1.4-19.6,4.1c-6.1,2.7-11.5,6.4-16,10.9
		c-4.5,4.5-8.1,9.9-10.8,16.1c-2.6,6.2-4,12.8-4,19.8v66.8c0,3.6,0.7,7,2.1,10.3c1.4,3.3,3.3,6.1,5.7,8.5c2.4,2.4,5.3,4.4,8.6,5.9
		c3.3,1.5,6.8,2.2,10.6,2.2h54.5c7,0,13.6-1.3,19.8-4c6.2-2.6,11.6-6.2,16.1-10.8c4.5-4.5,8.2-9.9,10.9-16.1
		c2.7-6.2,4.1-12.8,4.1-19.8V691.4z"/>
</g>
<path fill="#1878FF" d="M1129.2,81.2l-5.2,33.3l-11.4,73.3v0l-2.5,16.3l-23.4,142l-0.6,3.6l-16.5,97.7l-112.4,49.6l58.4-380
	C1054.4,104.8,1092.9,92.6,1129.2,81.2"/>
<rect y="-572" fill="none" width="2000" height="2000"/>
<g>
	<defs>
		<path id="SVGID_1_" d="M1015.6,117l-58.4,380l112.4-49.6l16.5-97.7l0.6-3.6l23.4-142l2.5-16.3v0l11.4-73.3l5.2-33.3
			C1092.9,92.6,1054.4,104.8,1015.6,117"/>
	</defs>
	<clipPath id="SVGID_2_">
		<use xlink:href="#SVGID_1_"  overflow="visible"/>
	</clipPath>
	<g opacity="0.46" clip-path="url(#SVGID_2_)">
		<g>
			<defs>
				<rect id="SVGID_3_" x="924.9" y="50.5" width="230.2" height="507.7"/>
			</defs>
			<clipPath id="SVGID_4_">
				<use xlink:href="#SVGID_3_"  overflow="visible"/>
			</clipPath>
			<g clip-path="url(#SVGID_4_)">
				<defs>
					<rect id="SVGID_5_" x="924.9" y="50.5" width="230.2" height="507.7"/>
				</defs>
				<clipPath id="SVGID_6_">
					<use xlink:href="#SVGID_5_"  overflow="visible"/>
				</clipPath>
				<g transform="matrix(1 0 0 1 0 0)" clip-path="url(#SVGID_6_)">
					
						<image overflow="visible" width="843" height="1859" xlink:href="A14684A9.png"  transform="matrix(0.2731 0 0 0.2731 924.9271 50.4648)">
					</image>
				</g>
			</g>
		</g>
	</g>
</g>
<g>
	<defs>
		<path id="SVGID_7_" d="M1129.2,81.2c-54.2,17-113.4,35.7-170.7,53.9c-149.4,47.4-286.1,91.4-288.1,92.3
			c107.3-13.6,202.3-23,277.9-29.8c76.8-6.9,135.4-11.5,165.1-15.2h0.2l-27.8,167.8l0.4-0.4l243.2-329.2l0.2-0.2l0,0
			C1301.6,27.7,1222.9,51.9,1129.2,81.2"/>
	</defs>
	<clipPath id="SVGID_8_">
		<use xlink:href="#SVGID_7_"  overflow="visible"/>
	</clipPath>
	
		<linearGradient id="SVGID_9_" gradientUnits="userSpaceOnUse" x1="0" y1="1427.896" x2="1" y2="1427.896" gradientTransform="matrix(-416.2228 178.5609 178.5609 416.2228 -253635.1406 -594279.8125)">
		<stop  offset="0" style="stop-color:#17A2FF"/>
		<stop  offset="1" style="stop-color:#2654FF"/>
	</linearGradient>
	<polygon clip-path="url(#SVGID_8_)" fill="url(#SVGID_9_)" points="1449.1,298.9 772.9,589 550.9,71.6 1227.1,-218.5 	"/>
</g>
<g>
	<defs>
		<rect id="SVGID_10_" y="-572" width="2000" height="2000"/>
	</defs>
	<clipPath id="SVGID_11_">
		<use xlink:href="#SVGID_10_"  overflow="visible"/>
	</clipPath>
	<g clip-path="url(#SVGID_11_)">
		<g>
			<defs>
				<rect id="SVGID_12_" x="1080" y="-15.2" width="284.9" height="231.6"/>
			</defs>
			<clipPath id="SVGID_13_">
				<use xlink:href="#SVGID_12_"  overflow="visible"/>
			</clipPath>
			<g clip-path="url(#SVGID_13_)">
				<defs>
					<rect id="SVGID_14_" x="1080" y="-15.2" width="284.9" height="231.6"/>
				</defs>
				<clipPath id="SVGID_15_">
					<use xlink:href="#SVGID_14_"  overflow="visible"/>
				</clipPath>
				<g clip-path="url(#SVGID_15_)">
					
						<image overflow="visible" width="1187" height="965" xlink:href="A14684AB.png"  transform="matrix(0.24 0 0 0.24 1080 -15.2)">
					</image>
				</g>
			</g>
		</g>
	</g>
	<g clip-path="url(#SVGID_11_)">
		<g>
			<defs>
				<rect id="SVGID_16_" x="670.4" y="20.3" width="659.2" height="207.1"/>
			</defs>
			<clipPath id="SVGID_17_">
				<use xlink:href="#SVGID_16_"  overflow="visible"/>
			</clipPath>
			<g clip-path="url(#SVGID_17_)">
				<defs>
					<path id="SVGID_18_" d="M1329.6,20.3L1329.6,20.3l-0.2,0.2l-216,161.8c-29.7,3.7-88.3,8.3-165.1,15.2
						c-75.6,6.9-170.6,16.2-277.9,29.8c1.9-0.9,138.6-44.9,288.1-92.3c57.3-18.2,116.5-36.9,170.7-53.9
						C1222.9,51.9,1301.6,27.7,1329.6,20.3"/>
				</defs>
				<clipPath id="SVGID_19_">
					<use xlink:href="#SVGID_18_"  overflow="visible"/>
				</clipPath>
				<defs>
					<filter id="Adobe_OpacityMaskFilter" filterUnits="userSpaceOnUse" x="601.2" y="-200" width="797.6" height="647.7">
						<feColorMatrix  type="matrix" values="1 0 0 0 0  0 1 0 0 0  0 0 1 0 0  0 0 0 1 0"/>
					</filter>
				</defs>
				<mask maskUnits="userSpaceOnUse" x="601.2" y="-200" width="797.6" height="647.7" id="SVGID_20_">
					<g filter="url(#Adobe_OpacityMaskFilter)">
						
							<linearGradient id="SVGID_21_" gradientUnits="userSpaceOnUse" x1="0" y1="1428.0568" x2="1" y2="1428.0568" gradientTransform="matrix(607.8596 -232.988 -232.988 -607.8596 333415.2188 868298.75)">
							<stop  offset="0" style="stop-color:#000000"/>
							<stop  offset="3.093052e-002" style="stop-color:#080808"/>
							<stop  offset="1" style="stop-color:#FFFFFF"/>
						</linearGradient>
						<polygon clip-path="url(#SVGID_19_)" fill="url(#SVGID_21_)" points="601.2,46.8 1245.1,-200 1398.8,200.9 754.9,447.7 						
							"/>
					</g>
				</mask>
				
					<linearGradient id="SVGID_22_" gradientUnits="userSpaceOnUse" x1="0" y1="1428.0568" x2="1" y2="1428.0568" gradientTransform="matrix(607.8596 -232.988 -232.988 -607.8596 333415.2188 868298.75)">
					<stop  offset="0" style="stop-color:#FBF8CD"/>
					<stop  offset="1" style="stop-color:#FBF8CD"/>
				</linearGradient>
				<polygon clip-path="url(#SVGID_19_)" mask="url(#SVGID_20_)" fill="url(#SVGID_22_)" points="601.2,46.8 1245.1,-200 
					1398.8,200.9 754.9,447.7 				"/>
			</g>
		</g>
	</g>
</g>
<rect y="-572" fill="none" width="2000" height="2000"/>
</svg>
