<?xml version="1.0" encoding="utf-8"?>
<!-- Generator: Adobe Illustrator 18.0.0, SVG Export Plug-In . SVG Version: 6.00 Build 0)  -->
<!DOCTYPE svg PUBLIC "-//W3C//DTD SVG 1.1//EN" "http://www.w3.org/Graphics/SVG/1.1/DTD/svg11.dtd">
<svg version="1.1" id="Layer_1" xmlns="http://www.w3.org/2000/svg" xmlns:xlink="http://www.w3.org/1999/xlink" x="0px" y="0px"
	 viewBox="0 0 2000 393" enable-background="new 0 0 2000 393" xml:space="preserve">
<g>
	<polygon points="605.8,128.4 532.1,128.4 532.1,108.7 699.3,108.7 699.3,128.4 625.6,128.4 625.6,289.6 605.8,289.6 	"/>
	<path d="M745.8,260.3c3.1,2.9,6.7,5.3,10.7,7c4,1.7,8.4,2.6,13,2.6h69.1v19.8h-69.1c-7.6,0-14.7-1.4-21.4-4.3
		c-6.7-2.9-12.5-6.8-17.4-11.9c-5-5-8.9-10.9-11.7-17.6c-2.9-6.7-4.3-13.7-4.3-21.2v-35.6c0-7.6,1.4-14.7,4.3-21.4
		c2.9-6.7,6.8-12.5,11.7-17.6c5-5,10.8-9,17.4-12c6.7-2.9,13.8-4.4,21.4-4.4h36c8.5,0,15.5,1.9,20.9,5.7c5.4,3.8,9,8.5,10.6,14.2
		c1.6,5.7,1.3,11.7-0.9,18.1c-2.2,6.4-6.7,12.3-13.4,17.6L745.8,260.3z M734.4,233.3c0,1.7,0.2,3.3,0.5,4.9c0.3,1.5,0.8,2.9,1.4,4
		l74.4-58.1c2.8-2.2,4.8-4.5,6-6.9c1.2-2.4,1.7-4.6,1.3-6.6c-0.4-2-1.6-3.7-3.6-5c-2-1.3-5-2-8.8-2h-36c-5,0-9.6,0.9-13.8,2.8
		c-4.3,1.9-7.9,4.4-11,7.6c-3.1,3.2-5.6,6.9-7.4,11.3c-1.9,4.3-2.8,9-2.8,14V233.3z"/>
	<path d="M875.5,177c2.9-6.7,6.9-12.5,12-17.4c5-5,11-8.9,17.8-11.7c6.8-2.9,14.1-4.3,21.9-4.3h64.6v19.8h-64.6
		c-5.1,0-9.9,0.9-14.3,2.8c-4.4,1.9-8.3,4.4-11.5,7.6c-3.3,3.2-5.8,6.9-7.7,11.1c-1.9,4.2-2.8,8.7-2.8,13.5v53.4
		c0,5,1.9,9.2,5.6,12.8c3.7,3.6,8.3,5.4,13.7,5.4h81.6v19.8h-81.6c-5.4,0-10.5-1-15.3-3c-4.8-2-9-4.7-12.4-8.1
		c-3.5-3.4-6.2-7.4-8.3-12.1c-2-4.7-3-9.5-3-14.6v-53.2C871.1,190.8,872.6,183.7,875.5,177"/>
	<path d="M1117.6,147.6c6.5,2.6,12.1,6,16.9,10.5c4.8,4.4,8.6,9.6,11.4,15.7c2.8,6,4.2,12.5,4.2,19.3v56.1h-19.8v-56.1
		c0-4-0.9-7.8-2.7-11.4c-1.8-3.6-4.2-6.7-7.2-9.4c-3-2.7-6.5-4.8-10.6-6.4c-4-1.5-8.4-2.3-13-2.3h-50v126h-19.8V108.7h19.8v35.1
		h49.9C1104.2,143.8,1111.1,145.1,1117.6,147.6"/>
	<path d="M1268.2,207.3c7.3,3.7,13,8.3,17.1,13.8c4.1,5.5,6.7,11.3,7.9,17.3c1.2,6,1,12.1-0.6,18.3c-1.6,6.1-4.4,11.6-8.5,16.5
		c-4.1,4.9-9.4,8.8-15.8,11.9c-6.4,3-13.9,4.5-22.4,4.5l-115.5,0.2V270l115.5-0.2c7.1,0,13.1-1.7,17.9-5c4.8-3.3,8-7.4,9.5-12.1
		c1.5-4.7,1.2-9.6-1-14.8c-2.2-5.1-6.8-9.5-13.6-13l-73-37.7c-7-3.6-12.5-8-16.5-13.3c-4-5.3-6.7-10.8-7.9-16.7
		c-1.2-5.9-1.2-11.7,0.2-17.4c1.4-5.7,4.1-10.9,8-15.6c4-4.6,9.1-8.4,15.5-11.3c6.4-2.9,13.8-4.3,22.3-4.3h77.2v19.8h-77.2
		c-7.3,0-13.2,1.6-17.8,4.6c-4.6,3.1-7.5,6.8-8.7,11.2c-1.2,4.3-0.7,8.9,1.5,13.6c2.2,4.7,6.5,8.7,12.7,12L1268.2,207.3z"/>
	<path d="M1349.6,260.7c5.1,6,14.4,9.1,27.9,9.1h37.2v19.8h-37.2c-19.4,0-33.6-4.8-42.7-14.5c-9.1-9.7-13.6-25.1-13.6-46.4v-65.1
		h-15.3v-19.8h15.3v-35.1h19.8v35.1h110.9v19.8H1341v65.1C1341,243.8,1343.9,254.5,1349.6,260.7"/>
	<path d="M1562.6,143.8h19.8V247c0,5.9-1.1,11.4-3.3,16.6c-2.2,5.2-5.2,9.7-9.1,13.5c-3.9,3.8-8.4,6.8-13.5,9.1
		c-5.1,2.2-10.7,3.4-16.7,3.4h-30.2c-8.5,0-16.5-1.6-24-4.9c-7.5-3.3-14-7.7-19.6-13.3c-5.6-5.6-9.9-12.1-13.1-19.6
		c-3.2-7.5-4.8-15.5-4.8-24.1v-83.9h19.8v83.9c0,5.7,1.1,11.2,3.3,16.3c2.2,5.1,5.2,9.6,9,13.4c3.8,3.8,8.3,6.8,13.4,9.1
		c5.1,2.2,10.5,3.4,16.3,3.4h30.2c6.5,0,11.9-2.2,16.2-6.6c4.3-4.4,6.4-9.8,6.4-16.2V143.8z"/>
	<path d="M1709.5,108.7h19.8v180.9h-75.2c-14.7,0-26.3-4-34.9-12c-8.6-8-12.9-18.9-12.9-32.7v-51.9c0-6.8,1.4-13.3,4.2-19.3
		c2.8-6,6.6-11.3,11.5-15.7c4.9-4.4,10.6-7.9,17.2-10.5c6.6-2.6,13.6-3.8,21-3.8h49.3V108.7z M1709.5,163.5h-49.3
		c-4.6,0-9,0.8-13.1,2.3c-4.1,1.6-7.8,3.7-10.9,6.4c-3.2,2.7-5.7,5.9-7.4,9.4c-1.8,3.6-2.7,7.4-2.7,11.4v51.9c0,7.9,2.5,14,7.4,18.4
		c5,4.3,11.9,6.5,20.7,6.5h55.3V163.5z"/>
	<path d="M1782.8,118.9c2.9,0,5.5,1,7.7,2.9c2.2,1.9,3.3,4.7,3.3,8.3c0,3.1-1.1,5.7-3.3,7.9c-2.2,2.2-4.7,3.3-7.7,3.3
		c-2.8,0-5.4-1.1-7.8-3.3c-2.4-2.2-3.6-4.8-3.6-7.9c0-3.6,1.2-6.3,3.6-8.3C1777.4,119.9,1780,118.9,1782.8,118.9 M1773,152.4h19.8
		v137.2H1773V152.4z"/>
	<path d="M1929.6,143.8c5.4,0,10.5,1,15.3,3.1c4.8,2.1,9,5,12.7,8.6c3.6,3.6,6.5,7.9,8.7,12.8c2.2,4.9,3.3,10,3.3,15.5v48.8
		c0,7.9-1.5,15.3-4.6,22.2c-3.1,6.9-7.2,12.9-12.4,18c-5.2,5.1-11.3,9.2-18.2,12.2c-7,3-14.3,4.5-22,4.5h-39.9
		c-5.4,0-10.5-1-15.3-3.1c-4.8-2.1-9-4.9-12.5-8.5c-3.6-3.6-6.4-7.7-8.5-12.6c-2.1-4.8-3.1-9.9-3.1-15.3V201
		c0-7.9,1.5-15.3,4.5-22.3c3-7,7.1-13.1,12.2-18.3c5.1-5.2,11.1-9.3,18-12.2c6.9-2.9,14.2-4.4,21.9-4.4H1929.6z M1949.7,183.8
		c0-5.6-1.9-10.3-5.8-14.3c-3.9-4-8.6-5.9-14.2-5.9h-40.2c-5.1,0-9.9,1-14.4,3c-4.5,2-8.4,4.7-11.7,8c-3.3,3.3-6,7.3-7.9,11.9
		c-1.9,4.6-2.9,9.4-2.9,14.5V250c0,2.6,0.5,5.2,1.5,7.6c1,2.4,2.4,4.5,4.2,6.3c1.8,1.8,3.9,3.2,6.3,4.3c2.4,1.1,5,1.6,7.8,1.6h40
		c5.1,0,10-1,14.5-2.9c4.6-1.9,8.5-4.6,11.9-7.9c3.3-3.3,6-7.3,8-11.9c2-4.6,3-9.4,3-14.5V183.8z"/>
</g>
<path fill="#1878FF" d="M367.4,68.9l-3.8,24.4l-8.4,53.8v0l-1.9,11.9l-17.2,104.3l-0.4,2.7l-12.1,71.8l-82.6,36.5L284,95.2
	C312.5,86.2,340.8,77.2,367.4,68.9"/>
<rect y="-800.8" fill="none" width="2000" height="2000"/>
<g>
	<defs>
		<path id="SVGID_1_" d="M284,95.2l-42.9,279.1l82.6-36.5l12.1-71.8l0.4-2.7l17.2-104.3l1.9-11.9v0l8.4-53.8l3.8-24.4
			C340.8,77.2,312.5,86.2,284,95.2"/>
	</defs>
	<clipPath id="SVGID_2_">
		<use xlink:href="#SVGID_1_"  overflow="visible"/>
	</clipPath>
	<g opacity="0.46" clip-path="url(#SVGID_2_)">
		<g>
			<defs>
				<rect id="SVGID_3_" x="217.4" y="46.3" width="169.1" height="372.9"/>
			</defs>
			<clipPath id="SVGID_4_">
				<use xlink:href="#SVGID_3_"  overflow="visible"/>
			</clipPath>
			<g clip-path="url(#SVGID_4_)">
				<defs>
					<rect id="SVGID_5_" x="217.4" y="46.3" width="169.1" height="372.9"/>
				</defs>
				<clipPath id="SVGID_6_">
					<use xlink:href="#SVGID_5_"  overflow="visible"/>
				</clipPath>
				<g transform="matrix(1 0 0 1 1.525879e-005 0)" clip-path="url(#SVGID_6_)">
					
						<image overflow="visible" width="843" height="1859" xlink:href="7BCFC023.png"  transform="matrix(0.2006 0 0 0.2006 217.4249 46.2881)">
					</image>
				</g>
			</g>
		</g>
	</g>
</g>
<g>
	<defs>
		<path id="SVGID_7_" d="M367.4,68.9c-39.8,12.5-83.3,26.2-125.4,39.6C132.3,143.3,32,175.6,30.5,176.2
			c78.8-10,148.5-16.9,204.1-21.9c56.4-5.1,99.4-8.5,121.2-11.2h0.1l-20.4,123.2l0.3-0.3L514.4,24.3l0.1-0.1l0,0
			C494,29.6,436.2,47.3,367.4,68.9"/>
	</defs>
	<clipPath id="SVGID_8_">
		<use xlink:href="#SVGID_7_"  overflow="visible"/>
	</clipPath>
	
		<linearGradient id="SVGID_9_" gradientUnits="userSpaceOnUse" x1="0" y1="1199.0967" x2="1" y2="1199.0967" gradientTransform="matrix(-305.6617 131.1298 131.1298 305.6617 -156721.5 -366476.9688)">
		<stop  offset="0" style="stop-color:#17A2FF"/>
		<stop  offset="1" style="stop-color:#2654FF"/>
	</linearGradient>
	<polygon clip-path="url(#SVGID_8_)" fill="url(#SVGID_9_)" points="602.4,228.7 105.8,441.7 -57.2,61.8 439.3,-151.3 	"/>
</g>
<g>
	<defs>
		<rect id="SVGID_10_" y="-800.8" width="2000" height="2000"/>
	</defs>
	<clipPath id="SVGID_11_">
		<use xlink:href="#SVGID_10_"  overflow="visible"/>
	</clipPath>
	<g clip-path="url(#SVGID_11_)">
		<g>
			<defs>
				<rect id="SVGID_12_" x="321.6" y="-11.4" width="228.5" height="189.4"/>
			</defs>
			<clipPath id="SVGID_13_">
				<use xlink:href="#SVGID_12_"  overflow="visible"/>
			</clipPath>
			<g clip-path="url(#SVGID_13_)">
				<defs>
					<rect id="SVGID_14_" x="321.6" y="-11.4" width="228.5" height="189.4"/>
				</defs>
				<clipPath id="SVGID_15_">
					<use xlink:href="#SVGID_14_"  overflow="visible"/>
				</clipPath>
				<g clip-path="url(#SVGID_15_)">
					
						<image overflow="visible" width="952" height="789" xlink:href="7BCFC021.png"  transform="matrix(0.24 0 0 0.24 321.6 -11.4393)">
					</image>
				</g>
			</g>
		</g>
	</g>
	<g clip-path="url(#SVGID_11_)">
		<g>
			<defs>
				<rect id="SVGID_16_" x="30.5" y="24.1" width="484.1" height="152.1"/>
			</defs>
			<clipPath id="SVGID_17_">
				<use xlink:href="#SVGID_16_"  overflow="visible"/>
			</clipPath>
			<g clip-path="url(#SVGID_17_)">
				<defs>
					<path id="SVGID_18_" d="M514.6,24.1L514.6,24.1l-0.1,0.2L355.8,143.1c-21.8,2.7-64.9,6.1-121.2,11.2
						c-55.6,5-125.3,11.9-204.1,21.9c1.4-0.6,101.8-33,211.5-67.8c42.1-13.4,85.6-27.1,125.4-39.6C436.2,47.3,494,29.6,514.6,24.1"
						/>
				</defs>
				<clipPath id="SVGID_19_">
					<use xlink:href="#SVGID_18_"  overflow="visible"/>
				</clipPath>
				<defs>
					<filter id="Adobe_OpacityMaskFilter" filterUnits="userSpaceOnUse" x="-20.3" y="-137.6" width="585.7" height="475.7">
						<feColorMatrix  type="matrix" values="1 0 0 0 0  0 1 0 0 0  0 0 1 0 0  0 0 0 1 0"/>
					</filter>
				</defs>
				<mask maskUnits="userSpaceOnUse" x="-20.3" y="-137.6" width="585.7" height="475.7" id="SVGID_20_">
					<g filter="url(#Adobe_OpacityMaskFilter)">
						
							<linearGradient id="SVGID_21_" gradientUnits="userSpaceOnUse" x1="0" y1="1199.2576" x2="1" y2="1199.2576" gradientTransform="matrix(446.394 -171.0994 -171.0994 -446.394 205240.9375 535527.3125)">
							<stop  offset="0" style="stop-color:#000000"/>
							<stop  offset="3.093052e-002" style="stop-color:#080808"/>
							<stop  offset="1" style="stop-color:#FFFFFF"/>
						</linearGradient>
						<polygon clip-path="url(#SVGID_19_)" fill="url(#SVGID_21_)" points="-20.3,43.6 452.6,-137.6 565.4,156.8 92.5,338 						"/>
					</g>
				</mask>
				
					<linearGradient id="SVGID_22_" gradientUnits="userSpaceOnUse" x1="0" y1="1199.2576" x2="1" y2="1199.2576" gradientTransform="matrix(446.394 -171.0994 -171.0994 -446.394 205240.9375 535527.3125)">
					<stop  offset="0" style="stop-color:#FBF8CD"/>
					<stop  offset="1" style="stop-color:#FBF8CD"/>
				</linearGradient>
				<polygon clip-path="url(#SVGID_19_)" mask="url(#SVGID_20_)" fill="url(#SVGID_22_)" points="-20.3,43.6 452.6,-137.6 
					565.4,156.8 92.5,338 				"/>
			</g>
		</g>
	</g>
</g>
<rect y="-800.8" fill="none" width="2000" height="2000"/>
</svg>
